<?xml version="1.0" encoding="utf-8"?>
<!-- Generator: Adobe Illustrator 25.3.0, SVG Export Plug-In . SVG Version: 6.00 Build 0)  -->
<svg version="1.1" id="레이어_1" xmlns="http://www.w3.org/2000/svg" xmlns:xlink="http://www.w3.org/1999/xlink" x="0px"
	 y="0px" viewBox="0 0 1000 1000" style="enable-background:new 0 0 1000 1000;" xml:space="preserve">
<path d="M764.89,66.67c0,52.79,0,105.57,0,158.36c-12.59,26.41-34.11,34.39-62.21,32.88c-24.82-1.34-49.85-0.26-74.68,1.38
	c-6.24,0.41-17.02,6.73-17.28,10.85c-1.6,25.94-0.81,52.03-0.81,78.6c34.81,0,68.84-0.37,102.85,0.12
	c26.07,0.38,45.56,16.97,46.11,41.75c1.12,50.3,1.06,100.66,0.03,150.97c-0.49,23.92-19.68,40.66-45.02,41.4
	c-25.39,0.74-50.81,0.21-76.22,0.24c-9.45,0.01-18.9,0-29.7,0c0,6.96,0,12.13,0,17.31c0,102.59-0.43,205.18,0.28,307.76
	c0.19,27.84-9.3,47.31-36.27,56.71c-56.63,0-113.25,0-169.88,0c-26.24-11.47-34.45-31.96-34.19-59.81
	c0.93-101.03,0.37-202.07,0.37-303.1c0-5.67,0-11.35,0-18.87c-24.6,0-48.01-1.06-71.28,0.26c-30.46,1.74-52.27-8.35-61.89-38.85
	c0-51.83,0-103.65,0-155.48c14.15-34.68,22.71-40.45,60.02-40.46c23.85-0.01,47.7,0,73.15,0c0-6.78-0.06-11.93,0.01-17.09
	c0.35-25.9-0.54-51.89,1.34-77.68c6.03-82.62,39.14-150.36,114.37-190.85c24.41-13.14,52.79-18.92,79.35-28.07
	c57.59,0,115.17,0,172.76,0C745.7,45.56,755.29,56.11,764.89,66.67z M291.52,528.65c30.9,0,61.01-0.04,91.11,0.01
	c30.87,0.06,40.25,9.47,40.25,40.45c0.02,107.97,0.01,215.93,0.01,323.9c0,5.53,0,11.07,0,16.82c44.44,0,86.56,0,130.44,0
	c0-6.2,0-11.85,0-17.5c0-62.86,0-125.72,0-188.58c0-46.55-0.18-93.09,0.08-139.64c0.14-24.3,11.11-35.19,35.27-35.39
	c29.75-0.25,59.5-0.07,89.25-0.07c8.48,0,16.96,0,25.81,0c0-42.66,0-83.54,0-125.29c-6.37,0-11.6,0-16.83,0
	c-33.11,0-66.22,0.2-99.33-0.09c-20.59-0.18-33.44-10.59-33.75-29.49c-0.58-34.52-1.09-69.16,1.22-103.57
	c2.56-38.05,24.91-60.67,63.08-64.8c25.18-2.72,50.76-1.79,76.16-2.53c5.05-0.15,10.1-0.5,15.07-0.75c0-38.77,0-75.92,0-112.96
	c-43.09,0-85.38-2.58-127.26,0.54c-88.63,6.6-149.03,66.8-156.57,155.45c-3.45,40.53-1.96,81.48-2.63,122.23
	c-0.41,24.87-11.2,35.64-36.33,35.94c-7.68,0.09-15.36,0.02-23.03,0.02c-23.82,0-47.64,0-72.02,0
	C291.52,445.79,291.52,486.34,291.52,528.65z" style="fill: #ffffff;"/>
</svg>
