<?xml version="1.0" encoding="utf-8"?>
<!-- Generator: Adobe Illustrator 25.3.0, SVG Export Plug-In . SVG Version: 6.00 Build 0)  -->
<svg version="1.1" id="레이어_1" xmlns="http://www.w3.org/2000/svg" xmlns:xlink="http://www.w3.org/1999/xlink" x="0px"
	 y="0px" viewBox="0 0 1000 1000" style="enable-background:new 0 0 1000 1000;" xml:space="preserve">
<g>
	<path d="M604.52,964.82c-70.59,0-141.19,0-211.78,0c-31.9-1.85-63.84-3.14-95.68-5.64c-110.57-8.67-193.28-58.8-235.32-164.41
		c-11.33-28.46-15.82-59.96-20.89-90.5c-3.95-23.74-3.92-48.14-5.66-72.25c0-88.01,0-176.03,0-264.04
		c1.74-24.11,3.06-48.26,5.28-72.33C54.66,141.95,154.11,47.2,307.99,40.26c28.27-1.28,56.5-3.37,84.75-5.08
		c71.51,0,143.02,0,214.53,0c4.93,0.7,9.85,1.79,14.8,2.03c27.88,1.32,55.85,1.42,83.63,3.78c109.44,9.29,191.1,59.68,232.53,164.24
		c11.29,28.49,15.89,59.96,20.87,90.5c4.01,24.66,3.96,49.97,5.72,75c0,86.18,0,172.36,0,258.54c-0.64,5.85-1.43,11.69-1.9,17.56
		c-2.11,26.42-2.62,53.07-6.46,79.23c-13.32,90.6-56.57,161.26-140.08,203.86c-36,18.37-74.52,27.25-114.73,29.44
		C669.27,961.13,636.89,962.99,604.52,964.82z M498.67,893.57c65.48-2.12,131.01-3.47,196.46-6.55
		c103.32-4.86,169.38-62.92,188.37-164.76c3.43-18.4,6.09-37.29,6.08-55.95c-0.09-119.12,2.07-238.36-2.55-357.32
		c-4.59-118.31-77.25-189.78-190.58-196.02c-131.45-7.24-262.94-7.19-394.39,0.1c-100.26,5.56-166.76,63.54-184.95,161.99
		c-4.31,23.33-6.99,47.29-7.16,70.98c-0.77,102.65-0.63,205.3-0.07,307.95c0.11,20.99,2.35,42.14,5.53,62.92
		C131.19,819.9,199.67,882,303.5,886.88C368.49,889.94,433.56,891.39,498.67,893.57z" style="fill: #ffffff;"/>
	<path d="M498.45,726.94c-124.04,0.39-226.52-100.99-227.03-224.6c-0.52-126.83,100.52-229.13,226.45-229.27
		c124.74-0.14,226.89,101.37,227.37,225.95C725.72,624.25,623.94,726.54,498.45,726.94z M652.3,500.32
		c0.18-85.02-68.39-154.21-153.13-154.52c-85.57-0.31-155.34,68.71-155.52,153.86c-0.18,84.57,68.95,154.18,153.48,154.54
		C582.83,654.57,652.11,585.87,652.3,500.32z" style="fill: #ffffff;"/>
	<path d="M805.04,255.49c-0.36,29.6-25.31,54.2-54.79,54.01c-29.5-0.19-54.28-25.07-54.33-54.56
		c-0.05-30.08,25.44-55.09,55.57-54.54C781.22,200.95,805.4,225.82,805.04,255.49z" style="fill: #ffffff;"/>
</g>
</svg>
