<?xml version="1.0" encoding="utf-8"?>
<!-- Generator: Adobe Illustrator 25.3.0, SVG Export Plug-In . SVG Version: 6.00 Build 0)  -->
<svg version="1.1" id="레이어_1" xmlns="http://www.w3.org/2000/svg" xmlns:xlink="http://www.w3.org/1999/xlink" x="0px"
	 y="0px" viewBox="0 0 1000 1000" style="enable-background:new 0 0 1000 1000;" xml:space="preserve">
<style type="text/css">
	.st0{fill:#040404;}
</style>
<g>
	<path class="st0" d="M16.54,515.46c4.54-9.71,3.61-20.37,5.1-30.57c7.58-51.87,28.15-98.57,55.7-142.59
		c1.01-1.61,2.35-3.15,2.87-4.92c8.22-28.08,33.84-43.13,64.14-37.57c26.68,4.89,53.53,37.16,55.7,66.93
		c0.98,13.37-1.25,26.22-5.53,38.89c-2.63,7.78-6.7,7.41-12.14,3.21c-6.54-5.05-9.01-12.43-10.85-19.94
		c-2.36-9.68-3.73-19.61-6.36-29.21c-4.33-15.82-12.7-21.22-29.16-20.25c-20.28,1.2-34.05,12.44-41.48,30.06
		c-15.6,37-30.49,74.37-37.3,114.28c-3.64,21.33-4.97,42.79-3.77,64.44c0.45,8.01,0.33,16.14-0.46,24.12
		c-4.07,41.16,6.14,79.65,20.96,117.43c4.69,11.95,8.45,24.22,15.89,34.96c21.75,31.4,66.31,31.81,88.74,0.6
		c9.21-12.81,17.36-26.3,24.11-40.58c2.38-5.04,5.31-8.77,11.68-7.77c6.43,1.02,9.26,5.4,10.44,11.11c0.51,2.48,0.76,5.26,0.16,7.67
		c-9.78,39.9-27.05,81.22-79.74,88.85c-0.42,0.06-0.73,0.91-1.09,1.4c-9.02,0-18.05,0-27.07,0c-1.53-3.68-5.28-3-8.1-4.05
		c-31.05-11.55-55.63-30.3-65.25-63.29C33.24,682.64,23.02,646.46,18.6,609c-0.16-1.37-0.52-2.45-2.06-2.71
		C16.54,576.01,16.54,545.73,16.54,515.46z" style="fill: #ffffff;"/>
	<path class="st0" d="M983.46,241.05c-7.2,11.78-20.01,16.58-30.37,24.45c-13.34,10.14-27.09,19.61-41.79,27.66
		c-11.27,6.17-14.95,13.56-13.1,26.01c2.99,20.18,9.24,37.83,26.71,51.33c17.77,13.73,27.05,34.3,37.83,53.93
		c18.08,32.96,6.39,59.17-13.17,85.11c-9.35,12.4-20.72,22.82-32.57,32.83c-14.8,12.51-31.19,19.52-50.95,19.74
		c-17.19,0.19-32.28,10.37-49.3,12.35c-9.89,1.15-19.66,3.8-29.56,4.37c-15.19,0.87-24.28-10.07-19.15-21.85
		c1.95-4.49,4.71-7.23,10.24-6.94c9.15,0.48,17.91-0.82,25.33-7.17c4.12-3.52,8.69-0.51,12.86,0.47c13.14,3.09,14.71,2.6,21.43-9.12
		c1.33-2.32,2.92-5.34,5.55-4.52c15.86,4.96,26.65-5.55,37.55-13.12c18.19-12.63,30.77-30.96,43.54-48.73
		c4.55-6.32,4.45-14.15,1.22-21.29c-5.15-11.39-10.97-21.71-22.93-28.45c-18.52-10.45-34.36-25.14-49.89-39.37
		c-16.6-15.2-18.83-37.54-14.84-58.34c4.5-23.52,17.7-43.04,37.16-58.06c23.61-18.21,49.55-32.14,76.79-43.91
		c2.85-1.23,6.3-1.44,8.19-4.46c2.58,0,5.16,0,7.74,0c7.25,3.93,10.57,11.37,15.47,17.39C983.46,234.61,983.46,237.83,983.46,241.05
		z" style="fill: #ffffff;"/>
	<path class="st0" d="M305.23,673.03c11.56-91.04,14.64-185.05,23.65-278.6c3.29-34.21,5.19-68.63,8.46-102.89
		c0.18-1.92,0.45-3.84,0.86-5.73c3.47-16.02,3.49-16.01,20.11-15.77c2.9,0.04,5.83,0.16,8.68-0.22c16.86-2.22,27.6,4.09,31.91,20.83
		c13.82,53.65,35.51,104.63,52.43,157.17c12.18,37.83,33.56,71.55,44.08,109.78c5.03,18.28,13.18,35.75,17.93,53.85
		c5.24,19.94,13.25,38.76,18.79,58.46c0.77,2.74,0.92,5.72,0.97,8.6c0.19,11.14-7.49,22.39-16.64,24.63
		c-7.65,1.87-18.94-3.9-24.09-12.98c-6.37-11.25-10.31-23.51-13.67-35.95c-6.03-22.33-9.54-45.32-17.48-67.15
		c-8.92-24.52-14.24-27.49-39.44-21.12c-18.36,4.64-36.31,10.69-55.47,12.22c-12.09,0.96-16.95,7.16-18.55,19.64
		c-3.85,30-8.7,59.84-14.26,89.56c-0.94,5-1.4,10.2-4.66,14.54c-3.21,4.28-6.49,8.3-12.66,6.56c-5.95-1.67-9.13-5.99-9.69-11.92
		C305.83,689.5,305.71,682.42,305.23,673.03z M355.83,508.3c0,8.04-0.07,16.09,0.01,24.13c0.16,16.19,3.54,18.83,19.09,14.83
		c3.73-0.96,7.47-2.06,10.98-3.61c11.48-5.07,23.21-9.31,35.34-12.65c14.27-3.92,17.73-9.15,13.9-23.3
		c-4.02-14.84-9.52-29.29-14.61-43.83c-11.8-33.65-23.15-67.47-37.83-100.03c-1.7-3.76-3.56-7.06-8.31-6.54
		c-4.56,0.5-5.12,4.08-5.53,7.78C363.49,412.71,357.39,460.29,355.83,508.3z" style="fill: #ffffff;"/>
	<path class="st0" d="M660.29,565.5c-7.92-1.22-11.3-6.21-14.96-11.18c-12.31-16.68-15.65-36.01-17.83-55.97
		c-4.26-39.02-5.02-78.39-11.54-117.17c-1.44-8.59-2.31-17.15-2.41-25.88c-0.17-14.87-4.74-18.82-19.43-17.88
		c-27.62,1.77-55.23,5.09-82.88,0.44c-13.79-2.32-26.71-7.02-38.71-14.17c-3.03-1.8-6.07-3.68-7.66-7.11
		c-1.78-3.84-3.93-8.07-1.13-11.78c2.4-3.18,6.49-1.58,9.96-0.89c14.92,2.95,29.02,2.81,44.25-2.19
		c29.47-9.67,60.65-11.56,91.51-13.33c48.32-2.78,95.82-11.96,143.81-17.24c12.74-1.4,33.71,10.23,38.77,21.97
		c3.58,8.3-0.45,18.15-8.1,17.78c-33.19-1.61-64.15,8.98-95.71,16.43c-9.06,2.14-18.33,3.67-27.59,4.57
		c-17.82,1.73-22.52,6.57-18.57,24.14c6,26.72,8.92,53.91,13.67,80.81c1.23,6.96,2.07,14.01,2.74,21.05
		c1.47,15.28,2.48,30.36,9.58,44.73c5.47,11.07,6.78,23.07-2.33,34.39C659.39,544.88,659.61,555.07,660.29,565.5z" style="fill: #ffffff;"/>
</g>
</svg>
