<?xml version="1.0" encoding="utf-8"?>
<!-- Generator: Adobe Illustrator 25.3.0, SVG Export Plug-In . SVG Version: 6.00 Build 0)  -->
<svg version="1.1" id="레이어_1" xmlns="http://www.w3.org/2000/svg" xmlns:xlink="http://www.w3.org/1999/xlink" x="0px"
	 y="0px" viewBox="0 0 1000 1000" style="enable-background:new 0 0 1000 1000;" xml:space="preserve">
<g>
	<path d="M35,524.95c0-16.63,0-33.27,0-49.9c0.94-7.81,1.93-15.62,2.82-23.44c11.22-98.55,48.77-185.64,114.87-259.71
		c70.18-78.64,157.26-128.3,261.01-147.93c20.29-3.84,40.89-6.02,61.35-8.96c16.63,0,33.27,0,49.9,0c3.26,0.69,6.51,1.48,9.79,2.05
		c30.79,5.39,62.64,7.38,92.2,16.66c179.39,56.3,289.51,176.98,329.31,361.01c4.29,19.81,5.9,40.2,8.75,60.33
		c0,16.63,0,33.27,0,49.9c-0.68,3.29-1.54,6.56-2.02,9.88c-3.15,21.63-4.86,43.56-9.52,64.86
		c-39.94,182.47-184.98,322.85-368.12,356.53c-21.46,3.95-43.28,5.91-64.94,8.79c-13.61,0-27.22,0-40.83,0
		c-3.69-0.67-7.36-1.7-11.08-1.94c-65.33-4.15-127.26-21.05-184.65-52.37C153.92,839.79,73.38,731.74,43.91,586.37
		C39.81,566.12,37.92,545.43,35,524.95z M500.4,112.71c-213.03-0.64-387.52,173.63-387.66,387.16
		c-0.13,212.99,172.47,386.12,386.27,387.45c212.72,1.32,387.18-172.41,388.23-386.63C888.3,287.82,714.34,113.35,500.4,112.71z" style="fill: #ffffff;"/>
	<path d="M431.52,314.14c104.5,1.19,201.05,14.11,293.35,50.14c24.87,9.71,48.84,21.99,72.45,34.55
		c21.3,11.33,27.86,35.4,16.98,55.36c-10.78,19.77-34.66,26.83-55.83,15.21c-117-64.2-243.47-78.89-374.1-72.2
		c-44.29,2.27-87.68,9.86-130.5,21.33c-24.88,6.66-46.68-5.39-52.56-28.03c-5.81-22.39,6.75-42.24,31.34-49.59
		C299.5,320.96,368.19,315.22,431.52,314.14z" style="fill: #ffffff;"/>
	<path d="M420.87,463.85c117.27,2.12,220.99,24.23,316.21,79.57c14,8.14,22.62,19.16,20.65,35.81
		c-2.95,24.85-27.89,36.23-51.54,24.5c-24.98-12.39-49.43-26.44-75.52-35.86c-114.59-41.4-231.24-48.02-349.6-17.05
		c-8.21,2.15-17.27,3.77-25.5,2.6c-14.78-2.11-25.21-15.64-25.85-30.29c-0.71-16.13,7.41-29.98,22.97-33.64
		c33.37-7.85,66.91-15.42,100.76-20.66C378.36,464.97,403.87,465,420.87,463.85z" style="fill: #ffffff;"/>
	<path d="M438.94,605.74c85.74,0.96,169.73,20.19,246.84,65.6c13.69,8.06,19.77,18.19,17.8,29.95
		c-3.3,19.67-22.65,27.63-41.92,18.47c-28.19-13.4-56.13-27.92-85.51-38.1c-63.05-21.85-128.64-25.51-194.59-19.02
		c-33.33,3.28-66.34,9.92-99.47,15.23c-16.92,2.71-30.24-4.66-33.58-19.02c-3.68-15.85,5.21-29.53,22.47-33.47
		C325.25,612.98,380.27,606.6,438.94,605.74z" style="fill: #ffffff;"/>
</g>
</svg>
