<?xml version="1.0" encoding="utf-8"?>
<!-- Generator: Adobe Illustrator 25.3.0, SVG Export Plug-In . SVG Version: 6.00 Build 0)  -->
<svg version="1.1" id="레이어_1" xmlns="http://www.w3.org/2000/svg" xmlns:xlink="http://www.w3.org/1999/xlink" x="0px"
	 y="0px" viewBox="0 0 1000 1000" style="enable-background:new 0 0 1000 1000;" xml:space="preserve">
<path d="M176.76,947.99c-5.57,0-11.13,0-16.7,0c-30.81-17.71-34.59-37.24-12.35-64.99C229.47,781.03,311.17,679,393.3,577.32
	c7.88-9.75,9.35-15.62,0.6-26.46C276.53,405.55,159.69,259.82,43.22,113.8c-6.16-7.72-10.19-18.8-11.09-28.68
	c-1.57-17.18,12.04-25.46,24.97-33.1c74.21,0,148.42,0,222.63,0c7.62,6.43,16.5,11.84,22.67,19.44
	c53.94,66.52,107.4,133.43,161,200.23c28.94,36.06,57.9,72.12,87.18,108.58c2.8-3.26,4.98-5.63,6.99-8.14
	c78.82-98.2,157.49-196.51,236.65-294.44c7.89-9.76,18.7-17.17,28.16-25.67c5.57,0,11.13,0,16.7,0
	c31.25,18.06,34.62,37.2,11.45,66.11c-63.19,78.83-126.44,157.61-189.65,236.42c-21.68,27.04-43.32,54.12-65.09,81.33
	c2.86,3.9,4.9,6.93,7.18,9.78c53.06,66.16,106.16,132.29,159.23,198.44c64.68,80.61,129.26,161.29,194.09,241.78
	c10.08,12.52,16.09,26.21,7.85,40.76c-4.84,8.55-14.57,14.34-22.1,21.37c-74.21,0-148.42,0-222.63,0
	c-7.91-6.79-17.08-12.55-23.53-20.52c-54.79-67.62-109.07-135.66-163.53-203.54c-27.78-34.62-55.62-69.19-83.72-104.14
	c-2.54,2.88-4.45,4.88-6.18,7.03c-79.12,98.55-158.09,197.23-237.54,295.51C197.01,932.09,186.21,939.5,176.76,947.99z
	 M860.24,878.19c-4.43-5.85-6.82-9.16-9.36-12.34c-86.69-108.08-173.38-216.16-260.09-324.22
	c-109.91-136.98-219.8-273.97-329.84-410.84c-2.95-3.66-7.51-8.49-11.39-8.56c-35.91-0.66-71.85-0.39-110.32-0.39
	c4.25,5.76,6.75,9.41,9.52,12.86c53.03,66.17,106.09,132.32,159.15,198.46c143.54,178.91,287.08,357.82,430.77,536.61
	c2.89,3.6,7.67,7.99,11.64,8.06C785.89,878.45,821.48,878.19,860.24,878.19z" style="fill: #ffffff;"/>
</svg>
