<?xml version="1.0" encoding="utf-8"?>
<!-- Generator: Adobe Illustrator 25.3.0, SVG Export Plug-In . SVG Version: 6.00 Build 0)  -->
<svg version="1.1" id="레이어_1" xmlns="http://www.w3.org/2000/svg" xmlns:xlink="http://www.w3.org/1999/xlink" x="0px"
	 y="0px" viewBox="0 0 1000 1000" style="enable-background:new 0 0 1000 1000;" xml:space="preserve">
<g>
	<path d="M417.28,34c55.15,0,110.3,0,165.44,0c4.06,0.57,8.11,1.53,12.18,1.64c45.93,1.24,91.89,1.58,137.78,3.69
		c66.97,3.07,134.24,4.29,200.72,11.99c78.54,9.1,131.76,53.42,156.71,129.98c18.66,57.25,18.59,116.67,22.24,175.71
		c0.5,8.16,1.68,16.28,2.55,24.41c0,79.05,0,158.09,0,237.14c-0.76,4.89-1.91,9.76-2.21,14.68c-2.16,35.3-3.03,70.71-6.45,105.88
		c-4.61,47.47-15.35,93.84-42.77,133.72c-36.59,53.21-90.42,76.42-153.27,79.07c-112.88,4.75-225.81,8.21-338.72,12.28
		c-6.37,0.23-12.72,1.18-19.08,1.8c-30.33,0-60.66,0-90.99,0c-4.51-0.61-9.01-1.66-13.53-1.77c-49.55-1.21-99.14-1.47-148.66-3.57
		c-73.33-3.12-146.82-5.18-219.84-11.96c-94.88-8.82-150.01-54.91-172.92-143.63c-9.43-36.52-11.6-75-15.97-112.72
		c-2.83-24.47-3.66-49.17-5.38-73.77c0-79.05,0-158.09,0-237.14c0.77-4.92,1.95-9.81,2.25-14.75c2.22-35.73,3-71.59,6.67-107.17
		c4.84-46.9,15.59-92.78,43.03-132.08c36.8-52.69,90.22-76.85,153-79.77c102.69-4.78,205.45-7.93,308.17-11.85
		C404.59,35.57,410.93,34.62,417.28,34z M527.35,104.63c-116.99,2.94-207.05,4.5-297.05,7.72c-52.31,1.87-104.68,4.84-156.72,10.27
		c-37.05,3.86-68.73,22.46-83.62,57.49c-12.04,28.31-21.21,59.32-24.02,89.83c-11.62,126-11.65,252.42-5.79,378.76
		c2.15,46.22,3.06,92.62,15.14,138.05c13.56,51,44.82,81.93,97.01,88.23c45.54,5.5,91.44,9.04,137.29,10.85
		c170.38,6.75,340.82,10.35,511.28,2.91c68.83-3.01,137.71-6.1,206.37-11.68c36.7-2.98,68.04-21.22,82.74-56.06
		c11.79-27.97,21.24-58.4,24-88.44c11.76-127.84,11.82-256.09,5.7-384.27c-2.18-45.76-2.66-91.84-15.48-136.61
		c-9.82-34.3-26.3-63.64-60.42-77.4c-19.66-7.93-41.41-13.61-62.48-14.6C767.74,113.44,634.11,108.78,527.35,104.63z" style="fill: #ffffff;"/>
	<path d="M343.52,486.65c0-47.33-0.28-94.65,0.1-141.98c0.28-35.03,24.63-58.14,56.67-53.74c7.93,1.09,15.9,4.54,23.03,8.42
		c86.33,46.96,172.45,94.3,258.76,141.29c19.54,10.64,33.09,25.12,32.81,48.5c-0.28,22.71-13.55,36.83-32.74,47.1
		C595.92,582.4,509.92,629,423.66,675.11c-42.1,22.5-79.89-0.21-80.1-47.85C343.36,580.39,343.52,533.52,343.52,486.65z
		 M416.44,597.25c68.09-36.65,134.2-72.23,202.39-108.93c-68.66-37.56-134.77-73.72-202.39-110.71
		C416.44,451.84,416.44,523.31,416.44,597.25z" style="fill: #ffffff;"/>
</g>
</svg>
