<?xml version="1.0" encoding="utf-8"?>
<!-- Generator: Adobe Illustrator 28.4.1, SVG Export Plug-In . SVG Version: 6.00 Build 0)  -->
<svg version="1.1" id="Layer_1" xmlns="http://www.w3.org/2000/svg" xmlns:xlink="http://www.w3.org/1999/xlink" x="0px" y="0px"
	 viewBox="0 0 595.28 283.83" style="enable-background:new 0 0 595.28 283.83;" xml:space="preserve">
<g>
	<path d="M103.23,13.74c1.65,0.18,3.29,0.36,4.94,0.55c9.11,1.08,17.7,3.83,25.63,8.4c17.84,10.27,29.27,25.45,34.16,45.46
		c1.82,7.45,2.23,15.04,1.47,22.69c-1.45,14.53-6.85,27.42-16.28,38.54c-10.14,11.95-22.9,19.7-38.21,23.21
		c-5.9,1.35-11.88,1.92-17.91,1.68c-15.27-0.61-29.01-5.55-41.01-15.03c-11.95-9.43-20.04-21.53-24.21-36.19
		c-2.18-7.66-2.99-15.48-2.47-23.45c1.01-15.49,6.49-29.2,16.52-41.01c10.33-12.16,23.36-19.94,38.98-23.33
		c3.35-0.73,6.73-1.21,10.16-1.38c0.25-0.01,0.52,0.03,0.73-0.16C98.23,13.74,100.73,13.74,103.23,13.74z M78.21,83.98
		c0,9.1-0.01,18.2,0,27.3c0.01,4.97,4.97,7.89,9.26,5.42c15.76-9.07,31.51-18.16,47.25-27.27c4.36-2.52,4.36-8.28,0-10.8
		c-15.74-9.11-31.49-18.19-47.24-27.28c-0.87-0.5-1.8-0.83-2.8-0.87c-3.64-0.13-6.45,2.55-6.46,6.21
		C78.19,65.78,78.21,74.88,78.21,83.98z"/>
</g>
<g>
	<path d="M222.45,13.74c3.47,0.61,5.92,2.77,8.2,5.26c1.58,1.72,3.26,3.35,4.91,5.02c15.7,15.93,31.38,31.87,47.09,47.79
		c3.3,3.34,5.11,7.29,5.17,11.99c0.07,4.93-1.78,9.06-5.24,12.55c-7.51,7.58-14.99,15.19-22.47,22.79
		c-10.5,10.66-20.99,21.33-31.51,31.97c-2.89,2.93-6.44,3.87-10.38,2.83c-4.01-1.05-6.56-3.73-7.57-7.74
		c-0.87-3.48-0.17-6.75,2.26-9.39c3.32-3.6,6.83-7.03,10.27-10.52c13.67-13.88,27.33-27.77,41.02-41.64
		c0.48-0.49,0.53-0.72,0.01-1.24c-16.88-17.1-33.75-34.22-50.61-51.35c-3.04-3.08-4.07-6.77-2.75-10.92
		c1.3-4.05,4.16-6.47,8.36-7.26c0.12-0.02,0.23-0.1,0.34-0.15C220.53,13.74,221.49,13.74,222.45,13.74z"/>
</g>
<g>
	<path d="M269.49,212.78c2.01-2.51,4-4.98,5.98-7.45c6.21-7.74,12.43-15.49,18.64-23.23c0.68-0.85,1.45-1.53,2.6-1.63
		c1.49-0.12,2.66,0.43,3.38,1.73c0.76,1.38,0.55,2.73-0.41,3.94c-1.49,1.88-3,3.75-4.51,5.62c-6.88,8.57-13.74,17.15-20.64,25.69
		c-0.54,0.67-0.48,1.05,0.02,1.68c11.64,14.48,23.26,28.97,34.89,43.46c0.63,0.79,1.17,1.59,1.17,2.66c0,1.89-1.38,3.42-3.27,3.43
		c-6.86,0.03-13.72,0.02-20.57,0.01c-1.28,0-2.1-0.79-2.85-1.72c-3.18-3.98-6.37-7.95-9.55-11.92c-4.81-6-9.63-11.99-14.42-18
		c-0.46-0.57-0.65-0.62-1.14,0c-7.98,9.99-15.99,19.94-23.98,29.92c-0.7,0.88-1.46,1.62-2.65,1.73c-1.48,0.14-2.67-0.4-3.4-1.7
		c-0.75-1.33-0.62-2.67,0.32-3.87c1.46-1.87,2.96-3.7,4.44-5.55c6.88-8.57,13.75-17.14,20.65-25.69c0.61-0.75,0.66-1.21,0.03-2
		c-11.67-14.49-23.31-29.01-34.97-43.52c-0.99-1.23-1.39-2.53-0.67-4c0.69-1.43,1.9-1.93,3.46-1.93c6.41,0.03,12.82,0.04,19.23-0.01
		c1.59-0.01,2.72,0.55,3.7,1.78c7.9,9.89,15.82,19.75,23.74,29.61C268.95,212.13,269.19,212.42,269.49,212.78z M228.82,187.27
		c0.66,0.83,1.17,1.48,1.68,2.12c11.36,14.17,22.73,28.33,34.1,42.5c7.84,9.77,15.68,19.53,23.5,29.31
		c0.39,0.49,0.78,0.72,1.44,0.71c2.27-0.05,4.55-0.02,6.83-0.02c1.14,0,2.28,0,3.48,0c-0.07-0.48-0.36-0.7-0.57-0.96
		c-12.83-15.99-25.66-31.98-38.48-47.97c-6.69-8.34-13.39-16.69-20.08-25.03c-0.25-0.31-0.45-0.67-0.97-0.66
		C236.19,187.29,232.64,187.27,228.82,187.27z"/>
</g>
<g>
	<path d="M23.38,228.93l-0.08,0.04l-0.07-0.06c0-5.13,0-10.26,0-15.38c0.05-0.01,0.1-0.01,0.15-0.02
		C23.38,218.65,23.38,223.79,23.38,228.93z"/>
	<path d="M23.38,228.93c0-5.14,0-10.28,0-15.43c0.72-2.4,2.13-3.47,4.64-3.49c2.31-0.01,4.62-0.04,6.92,0.02
		c0.84,0.02,0.99-0.26,0.99-1.03c0.01-3.49-0.18-6.98,0.35-10.46c1.44-9.51,7.58-16.05,17.02-18.12c1.1-0.24,2.2-0.37,3.33-0.36
		c4.26,0.02,8.52,0.01,12.78,0.01c2.54,0,4.3,1.73,4.33,4.33c0.03,3.2,0.01,6.41,0.01,9.61c0,1.06,0.03,2.12-0.01,3.17
		c-0.1,2.17-1.69,3.95-3.86,4.07c-2.36,0.14-4.74,0.07-7.11,0.1c-0.93,0.01-1.86,0.01-2.77,0.22c-0.65,0.15-1.02,0.52-1.09,1.17
		c-0.25,2.27-0.08,4.55-0.12,6.82c-0.01,0.56,0.42,0.45,0.76,0.45c2.85,0,5.71,0.1,8.55-0.02c3.5-0.15,5.25,2.26,5.17,5.13
		c-0.12,4.13-0.03,8.27-0.03,12.4c0,3.14-1.75,4.88-4.88,4.88c-2.82,0-5.64,0.03-8.46-0.02c-0.85-0.02-1.13,0.16-1.13,1.09
		c0.04,10.12,0.02,20.25,0.03,30.37c0,1.66-0.43,3.1-1.83,4.12c-0.69,0.51-1.47,0.75-2.33,0.75c-4.84-0.01-9.68,0.01-14.52-0.01
		c-2.04-0.01-3.69-1.37-4.08-3.38c-0.11-0.53-0.12-1.08-0.12-1.62c-0.01-10.09-0.02-20.19,0.02-30.28c0-0.87-0.23-1.07-1.07-1.05
		c-2.37,0.06-4.74,0.05-7.11,0.01C25.54,232.35,23.81,230.96,23.38,228.93z M41.14,246.4c0,5.35,0.03,10.7-0.02,16.05
		c-0.01,0.96,0.29,1.14,1.18,1.13c3.4-0.05,6.79-0.06,10.19,0c0.9,0.02,1.1-0.24,1.1-1.11c-0.03-10.57-0.02-21.14-0.02-31.72
		c0-2.58,1.02-3.58,3.62-3.58c3.33,0,6.66-0.02,10,0.02c0.69,0.01,0.86-0.2,0.85-0.87c-0.03-3.4-0.03-6.79,0.01-10.19
		c0.01-0.72-0.18-0.92-0.91-0.91c-3.46,0.04-6.92,0.03-10.38,0.01c-1.88-0.01-3.14-1.11-3.16-2.88c-0.04-3.11-0.08-6.22,0.06-9.32
		c0.16-3.57,2-5.81,5.16-6.54c0.68-0.16,1.39-0.27,2.09-0.29c2.27-0.06,4.55-0.07,6.82-0.08c0.5,0,0.85,0,0.84-0.69
		c-0.03-3.2-0.02-6.41-0.01-9.61c0-0.47-0.1-0.71-0.64-0.69c-3.91,0.08-7.82-0.2-11.72,0.16c-8.32,0.77-14.09,6.59-14.86,14.88
		c-0.36,3.87-0.13,7.75-0.19,11.62c-0.04,2.37-1.1,3.44-3.49,3.45c-2.79,0-5.57,0.01-8.36-0.01c-0.58-0.01-0.77,0.16-0.76,0.76
		c0.03,3.46,0.03,6.92,0,10.38c-0.01,0.64,0.18,0.82,0.81,0.82c2.79-0.03,5.57-0.02,8.36-0.01c2.39,0,3.44,1.06,3.44,3.47
		C41.14,235.9,41.14,241.15,41.14,246.4z"/>
</g>
<g>
	<g>
		<path d="M572.05,20.28c-0.1,0.07-0.25,0.12-0.28,0.22c-0.48,1.26-1.38,2.19-2.48,2.85c-4.42,2.66-8.34,6.05-12.81,8.63
			c-1,0.57-1.98,1.18-3.02,1.68c-1.3,0.63-1.99,1.69-2.27,3.04c-0.24,1.16-0.34,2.33,0.01,3.52c0.51,1.75,0.69,3.58,1.24,5.33
			c0.6,1.93,1.65,3.49,3.22,4.77c4.22,3.44,7.69,7.51,10.04,12.47c0.44,0.92,0.81,1.88,1.19,2.83c0.24,0.63,0.51,1.23,0.89,1.8
			c1.84,2.76,1.88,5.79,1.21,8.88c-0.92,4.29-3.32,7.81-6.03,11.12c-2.85,3.49-6.26,6.39-9.91,9.03c-2.47,1.78-5.18,2.59-8.15,2.72
			c-2.08,0.1-4.16,0.22-6.13,1.01c-4.86,1.94-9.97,2.74-15.13,3.29c-1.64,0.18-3.06-0.61-4.29-1.63c-1.55-1.28-0.62-4.54,0.88-5.38
			c0.29-0.17,0.62-0.1,0.94-0.1c2.44,0.05,4.82-0.1,6.72-1.94c0.33-0.32,0.77-0.26,1.19-0.16c1.09,0.26,2.17,0.56,3.27,0.75
			c1.89,0.33,2.87-0.27,3.6-2.03c0.22-0.53,0.42-1.07,0.92-1.44c0.31-0.23,0.59-0.32,0.97-0.18c1.55,0.6,2.99,0.21,4.44-0.46
			c5.36-2.46,9.16-6.68,12.65-11.23c0.94-1.22,2.01-2.37,2.75-3.7c1.26-2.27,0.71-4.54-0.52-6.67c-0.72-1.25-1.53-2.44-2.33-3.64
			c-0.15-0.23-0.39-0.45-0.63-0.57c-2.94-1.37-5.38-3.44-7.82-5.52c-1.75-1.5-3.53-2.97-5.43-4.28c-2.29-1.57-3.47-3.89-4.14-6.49
			c-0.61-2.37-0.85-4.79-0.97-7.23c-0.08-1.51,0.58-2.88,1.09-4.25c1.15-3.11,2.77-5.99,4.97-8.49c2.15-2.45,4.84-4.28,7.51-6.1
			c5.1-3.47,10.64-6.12,16.31-8.49c0.22-0.09,0.71,0.01,0.56-0.52c0.71,0,1.41,0,2.12,0c1.13,0.78,2.05,1.76,2.76,2.94
			c0.24,0.4,0.47,0.83,0.89,1.1C572.05,18.61,572.05,19.45,572.05,20.28z"/>
	</g>
	<g>
		<path d="M342.57,94.02c0.27,3.29,0.24,5.87-0.07,8.41c-0.52,4.26-0.18,8.43,0.7,12.6c0.79,3.73,1.46,7.48,2.72,11.09
			c0.44,1.27,0.9,2.54,1.46,3.76c1.08,2.32,1.59,4.86,2.86,7.11c1.43,2.54,3.16,4.81,5.44,6.65c0.58,0.47,1.2,0.83,1.94,0.99
			c5.76,1.24,10.92,0.22,15.07-4.17c1.71-1.82,2.93-4.04,4.19-6.2c0.98-1.69,1.91-3.41,2.77-5.16c0.51-1.02,1.19-1.68,2.36-1.62
			c1.26,0.07,2.18,0.68,2.66,1.88c0.62,1.54,0.49,3.12-0.05,4.61c-1.08,2.98-1.83,6.1-3.38,8.87c-2.88,5.17-7.03,8.87-12.82,10.61
			c-2.69,0.8-5.42,1.05-8.16,0.81c-2.57-0.23-4.98-1.13-7.29-2.27c-4.93-2.42-8.9-5.94-11.48-10.82c-1.33-2.52-1.94-5.35-2.66-8.11
			c-1-3.87-1.76-7.81-3.1-11.59c-0.27-0.75-0.14-1.52-0.1-2.29c0.06-1.11,0.06-2.19-1-2.93c-0.28-0.2-0.28-0.56-0.3-0.88
			c-0.5-7.58-0.97-15.17-0.64-22.76c0.31-6.98,1.01-13.93,2.77-20.73c1.04-4.01,2.59-7.83,4.23-11.63c2.06-4.79,4.18-9.56,7.12-13.9
			c0.38-0.56,0.76-1.11,1.16-1.65c0.2-0.27,0.34-0.54,0.33-0.88c-0.03-2.15,0.98-3.84,2.53-5.18c4.66-4.03,9.95-4.99,15.78-3.11
			c1.46,0.47,2.66,1.4,3.78,2.42c2.87,2.62,5.31,5.57,6.59,9.3c1.28,3.73,1.11,7.5,0.18,11.27c-0.25,1.02-0.55,2.04-1.01,3
			c-0.5,1.03-0.99,1.16-1.99,0.6c-2.2-1.23-2.93-3.39-3.46-5.63c-0.53-2.24-0.92-4.52-1.45-6.76c-0.71-3.01-2.49-4.84-4.91-5.13
			c-1.48-0.18-2.95-0.04-4.39,0.28c-4.08,0.91-6.5,3.73-8.31,7.25c-1.35,2.63-2.19,5.46-3.17,8.24c-1.05,2.99-2.3,5.9-3.25,8.93
			c-1.53,4.87-2.64,9.83-3.22,14.91C342.61,87.71,342.49,91.23,342.57,94.02z"/>
	</g>
	<g>
		<path d="M465.57,44.76c-5.42,0.1-9.78-0.16-14.02-1.54c-2.26-0.74-4.41-1.73-6.38-3.07c-1.18-0.81-1.57-2.06-1.63-3.43
			c-0.03-0.62,0.35-0.96,0.92-1.04c0.44-0.06,0.93-0.1,1.33,0.04c1.54,0.51,3.17,0.37,4.74,0.72c1.96,0.44,3.71-0.28,5.56-0.87
			c5.51-1.77,11.25-2.49,17-3c5.23-0.46,10.47-0.86,15.71-1.31c5.24-0.45,10.41-1.4,15.62-2.09c4.03-0.54,8.07-1.03,12.11-1.55
			c0.82-0.11,1.64,0.04,2.34,0.42c1.99,1.06,3.82,2.38,5.32,4.05c1.35,1.51,1.38,3.23,0.34,4.67c-0.45,0.62-1.01,0.93-1.8,0.88
			c-5.41-0.34-10.65,0.72-15.85,2.04c-5.3,1.35-10.56,2.94-16.08,3.21c-0.99,0.05-1.87,0.63-2.62,1.31
			c-0.38,0.34-0.52,0.78-0.53,1.29c-0.03,2.04,0.21,4.03,0.86,5.96c0.59,1.75,0.63,3.59,0.91,5.39c0.98,6.49,2.33,12.94,2.74,19.5
			c0.17,2.8,0.79,5.37,2.03,7.88c0.88,1.78,1.21,3.77,1.07,5.8c-0.04,0.64-0.22,1.18-0.62,1.67c-1.79,2.23-2.54,4.77-2.28,7.62
			c0.08,0.9-0.11,1-0.97,0.65c-1.6-0.66-2.43-2.03-3.18-3.46c-0.65-1.25-1.29-2.5-2.23-3.58c-0.5-0.58-0.49-1.38-0.62-2.09
			c-1.04-5.68-1.56-11.42-1.99-17.18c-0.48-6.42-0.89-12.85-2.01-19.21c-0.36-2.07-0.57-4.12-0.53-6.2
			c0.01-0.51-0.08-1.02-0.18-1.52c-0.42-2.05-1.54-2.85-3.62-2.72C472.87,44.27,468.73,44.76,465.57,44.76z"/>
	</g>
	<g>
		<path d="M404.96,125.85c0.33-6.21,1.39-12.1,1.78-18.04c0.39-5.95,0.85-11.88,1.31-17.82c0.77-10,1.32-20.01,2.4-29.99
			c0.49-4.56,0.33-9.15,0.93-13.7c0.61-4.64,0.65-9.33,1.36-13.96c0.21-1.34,0.59-2.62,1.03-3.89c0.23-0.66,0.65-0.97,1.37-0.95
			c1.18,0.04,2.37,0.04,3.56,0.04c0.9,0,1.78-0.07,2.64-0.41c1.13-0.45,2.19-0.05,3.08,0.6c1.74,1.25,2.98,2.95,3.52,5.01
			c1.63,6.2,3.48,12.32,5.61,18.36c2.56,7.27,5.27,14.49,8.06,21.68c0.86,2.21,1.28,4.56,2.07,6.79c1.04,2.91,2.6,5.56,4.03,8.28
			c1.82,3.45,3.01,7.13,4.13,10.84c1.33,4.41,2.55,8.86,4.66,13c0.09,0.17,0.17,0.36,0.16,0.55c-0.02,3.31,1.46,6.19,2.61,9.17
			c0.86,2.21,1.77,4.39,1.77,6.83c0,2.82-1.82,4.72-3.92,5.67c-1.24,0.56-2.51-0.03-3.66-0.64c-1.8-0.96-2.71-2.63-3.51-4.42
			c-1.82-4.1-2.82-8.43-3.81-12.77c-1-4.37-1.97-8.75-3.8-12.87c-0.16-0.35-0.31-0.7-0.5-1.04c-1.05-1.9-2.45-2.93-4.84-2.56
			c-2.55,0.4-4.99,1.13-7.47,1.77c-2.78,0.72-5.52,1.62-8.45,1.71c-2,0.06-3.87,0.58-5.12,2.37c-0.24,0.35-0.41,0.71-0.46,1.14
			c-0.83,6.1-1.71,12.18-2.78,18.24c-0.43,2.46-0.9,4.91-1.4,7.36c-0.35,1.71-2.04,3.26-3.36,3.17c-1.44-0.09-2.66-1.19-2.86-2.78
			C404.81,130.27,404.71,127.93,404.96,125.85z M417.29,86.21c0,1.25,0,2.5,0,3.75c0,1.25-0.01,2.5,0,3.75
			c0.01,1.52,0.8,2.31,2.28,2.29c1.36-0.01,2.66-0.35,3.93-0.79c2.5-0.88,4.85-2.16,7.42-2.86c1.3-0.35,2.62-0.61,3.86-1.14
			c1.84-0.8,2.34-1.56,2.29-3.54c-0.03-1.2-0.23-2.39-0.64-3.48c-3.22-8.67-6.03-17.48-9.42-26.09c-1.07-2.71-2.24-5.37-3.39-8.05
			c-0.34-0.78-0.98-1.2-1.85-1.07c-0.86,0.13-1.18,0.72-1.26,1.56c-0.19,1.98-0.44,3.95-0.67,5.92
			C418.68,66.34,417.63,76.24,417.29,86.21z"/>
	</g>
</g>
<g>
	<path d="M372.59,270.35c-1.14-0.03-2.28-0.06-3.42-0.09c-0.72-0.15-1.43-0.22-2.16-0.09c-0.23-0.01-0.47-0.03-0.7-0.04
		c-0.08,0-0.16-0.01-0.24-0.01c-0.31-0.01-0.63-0.02-0.94-0.03c-0.84-0.17-1.69-0.24-2.54-0.13c-0.5-0.03-1-0.06-1.5-0.08
		c-0.45-0.16-0.91-0.22-1.39-0.11c-0.37-0.03-0.74-0.06-1.11-0.08c-0.38-0.16-0.78-0.19-1.18-0.11c-0.18-0.03-0.37-0.05-0.55-0.08
		c-0.3-0.21-0.64-0.22-0.98-0.14c-0.12-0.01-0.24-0.02-0.36-0.04c-0.24-0.17-0.51-0.23-0.8-0.14c-0.25-0.02-0.49-0.05-0.74-0.07
		c-0.43-0.22-0.89-0.34-1.37-0.29c-0.12-0.03-0.24-0.06-0.36-0.09c-0.11-0.16-0.25-0.19-0.42-0.12c-0.11-0.03-0.22-0.06-0.34-0.08
		c-0.05-0.1-0.12-0.15-0.23-0.08c-0.17-0.05-0.34-0.09-0.52-0.14c-0.05-0.12-0.13-0.15-0.25-0.09c-0.11-0.03-0.22-0.07-0.33-0.1
		c-0.04-0.12-0.12-0.16-0.24-0.11c-0.1-0.04-0.21-0.07-0.31-0.11c-0.04-0.13-0.13-0.16-0.25-0.12c-0.05-0.03-0.1-0.04-0.15-0.05
		c-0.05-0.11-0.13-0.15-0.25-0.11c-6.13-2.73-9.16-7.76-10.61-14.06c-1.1-4.82-1.14-9.72-1.42-14.61
		c-0.48-8.45-0.34-16.91-0.15-25.37c0.11-5.02,0.25-10.07,1.08-15.04c0.71-4.21,1.83-8.34,4.6-11.77c3.05-3.77,7.01-6.06,11.81-6.73
		c5.94-0.83,11.94-0.9,17.93-1.11c11.17-0.4,22.35-0.76,33.54-0.51c10.86,0.24,21.72,0.55,32.56,1.25
		c4.12,0.27,8.01,1.28,11.44,3.73c3.22,2.31,5.33,5.37,6.59,9.09c1.33,3.92,1.79,7.97,2.08,12.07c0.75,10.56,0.67,21.13,0.44,31.7
		c-0.11,4.86-0.25,9.75-1.05,14.56c-0.68,4.05-1.74,8.03-4.27,11.4c-2.83,3.78-6.64,6.04-11.26,6.94c-0.23-0.07-0.43-0.04-0.6,0.12
		c-0.12,0.01-0.24,0.03-0.36,0.04c-0.75-0.08-1.46,0.09-2.18,0.29c-0.11,0.01-0.23,0.01-0.34,0.02c-0.33-0.11-0.65-0.1-0.96,0.05
		c-0.5,0.03-0.99,0.07-1.49,0.1c-0.6-0.14-1.19-0.05-1.78,0.08c-0.63,0.03-1.25,0.07-1.88,0.1c-0.73-0.11-1.45-0.06-2.16,0.11
		c-0.18,0.01-0.37,0.02-0.56,0.03c-0.08,0-0.16,0.01-0.24,0.01c-0.38,0.03-0.75,0.05-1.13,0.08c-0.4-0.16-0.78-0.08-1.16,0.06
		c-0.88,0.04-1.76,0.07-2.64,0.11c-0.86-0.14-1.7-0.07-2.55,0.09c-0.57,0.01-1.14,0.03-1.71,0.04c-0.46-0.1-0.93-0.11-1.39,0.02
		c-0.36,0.01-0.72,0.03-1.08,0.04c-0.86-0.14-1.7-0.08-2.55,0.09c-0.75,0.03-1.51,0.05-2.26,0.08c-4.89-0.1-9.78,0.05-14.66,0.28
		c-0.45,0-0.9,0-1.35,0c-2.74-0.27-5.49-0.24-8.23-0.3c-1.43-0.04-2.87-0.17-4.3,0c-0.95-0.02-1.9-0.04-2.85-0.06
		c-0.97-0.18-1.95-0.23-2.93-0.11c-0.17-0.01-0.34-0.01-0.51-0.02c-0.46-0.13-0.92-0.12-1.39-0.02c-0.63-0.02-1.27-0.03-1.9-0.05
		C374.29,270.28,373.45,270.22,372.59,270.35z M397.57,185.5c-12.45,0.2-25.04,0.43-37.62,1.19c-2.24,0.14-4.49,0.21-6.63,0.94
		c-2.84,0.98-5.11,2.69-6.39,5.46c-0.95,2.04-1.58,4.19-1.95,6.41c-0.53,3.14-0.62,6.31-0.78,9.48
		c-0.57,11.63-0.54,23.26,0.18,34.88c0.25,3.97,0.58,7.9,2.11,11.66c1.25,3.06,3.46,4.93,6.52,5.91c2.15,0.69,4.39,0.92,6.62,1.1
		c4.95,0.4,9.92,0.55,14.88,0.69c8.52,0.25,17.04,0.57,25.57,0.51c6.66-0.05,13.33-0.22,19.99-0.42c6.79-0.21,13.59-0.31,20.34-1.16
		c4.13-0.52,7.13-2.73,8.72-6.74c1.48-3.73,1.91-7.61,2.14-11.56c0.69-11.53,0.77-23.06,0.18-34.59c-0.23-4.44-0.2-8.92-1.54-13.23
		c-0.63-2.01-1.29-4.01-2.87-5.57c-2.56-2.52-5.74-3.41-9.17-3.63C424.5,185.97,411.11,185.69,397.57,185.5z"/>
	<path d="M398.59,271.02c4.88-0.23,9.77-0.38,14.66-0.28c-0.02,0.09-0.03,0.19-0.05,0.28C408.34,271.02,403.47,271.02,398.59,271.02
		z"/>
	<path d="M384.71,270.71c1.43-0.17,2.87-0.03,4.3,0c2.75,0.07,5.5,0.04,8.23,0.3c-4.17,0-8.33,0-12.5,0
		C384.74,270.92,384.72,270.81,384.71,270.71z"/>
	<path d="M384.71,270.71c0.01,0.1,0.02,0.2,0.04,0.31c-1.73,0-3.46,0-5.19,0c0.16-0.44,0.54-0.21,0.82-0.25
		c0.49-0.06,1.01,0.17,1.49-0.12C382.81,270.67,383.76,270.69,384.71,270.71z"/>
	<path d="M381.86,270.65c-0.48,0.29-0.99,0.06-1.49,0.12c-0.28,0.04-0.66-0.19-0.82,0.25c-0.19,0-0.38,0-0.58,0
		c0.18-0.18-0.02-0.32-0.05-0.48C379.92,270.42,380.89,270.48,381.86,270.65z"/>
	<path d="M422.25,270.46c0.84-0.16,1.69-0.23,2.55-0.09C423.95,270.7,423.1,270.66,422.25,270.46z"/>
	<path d="M372.59,270.35c0.85-0.14,1.7-0.08,2.54,0.1C374.28,270.65,373.43,270.7,372.59,270.35z"/>
	<path d="M362.59,269.95c0.85-0.11,1.7-0.05,2.54,0.13C364.28,270.26,363.42,270.34,362.59,269.95z"/>
	<path d="M415.52,270.66c0.84-0.18,1.69-0.23,2.55-0.09C417.23,270.89,416.37,270.87,415.52,270.66z"/>
	<path d="M430.52,270.09c0.71-0.17,1.43-0.23,2.16-0.11C431.97,270.33,431.25,270.28,430.52,270.09z"/>
	<path d="M367.01,270.17c0.73-0.13,1.45-0.06,2.16,0.09C368.44,270.46,367.72,270.5,367.01,270.17z"/>
	<path d="M434.55,269.88c0.59-0.13,1.18-0.22,1.78-0.08C435.75,270.12,435.16,270.07,434.55,269.88z"/>
	<path d="M359.71,269.76c0.47-0.11,0.93-0.05,1.39,0.11C360.62,270.05,360.15,270.12,359.71,269.76z"/>
	<path d="M439.13,269.63c0.71-0.2,1.43-0.37,2.18-0.29C440.6,269.58,439.89,269.78,439.13,269.63z"/>
	<path d="M427.44,270.27c0.38-0.14,0.76-0.22,1.16-0.06C428.22,270.46,427.84,270.46,427.44,270.27z"/>
	<path d="M352.61,268.81c0.49-0.05,0.94,0.07,1.37,0.29C353.47,269.23,353.03,269.05,352.61,268.81z"/>
	<path d="M437.82,269.7c0.31-0.15,0.64-0.16,0.96-0.05C438.47,269.86,438.15,269.9,437.82,269.7z"/>
	<path d="M357.42,269.57c0.4-0.09,0.8-0.05,1.18,0.11C358.19,269.86,357.8,269.76,357.42,269.57z"/>
	<path d="M354.72,269.17c0.29-0.09,0.55-0.03,0.8,0.14C355.21,269.52,354.96,269.4,354.72,269.17z"/>
	<path d="M355.88,269.35c0.35-0.08,0.68-0.07,0.98,0.14C356.51,269.66,356.19,269.51,355.88,269.35z"/>
	<path d="M377.04,270.5c0.46-0.1,0.93-0.11,1.39,0.02C377.96,270.71,377.5,270.71,377.04,270.5z"/>
	<path d="M419.15,270.52c0.46-0.13,0.93-0.12,1.39-0.02C420.08,270.71,419.61,270.71,419.15,270.52z"/>
	<path d="M441.67,269.3c0.18-0.16,0.38-0.2,0.6-0.12C442.1,269.38,441.92,269.49,441.67,269.3z"/>
	<path d="M351.83,268.6c0.17-0.07,0.31-0.04,0.42,0.12C352.05,268.9,351.92,268.81,351.83,268.6z"/>
	<path d="M351.26,268.43c0.11-0.07,0.18-0.02,0.23,0.08C351.39,268.56,351.31,268.55,351.26,268.43z"/>
	<path d="M350.49,268.21c0.12-0.06,0.2-0.03,0.25,0.09C350.63,268.35,350.55,268.32,350.49,268.21z"/>
	<path d="M349.92,268c0.12-0.05,0.2-0.01,0.24,0.11C350.05,268.15,349.96,268.11,349.92,268z"/>
	<path d="M366.07,270.12c0.08,0,0.16,0.01,0.24,0.01C366.22,270.27,366.15,270.26,366.07,270.12z"/>
	<path d="M429.72,270.13c0.08,0,0.16-0.01,0.24-0.01C429.89,270.26,429.81,270.27,429.72,270.13z"/>
	<path d="M349.36,267.77c0.12-0.04,0.21,0,0.25,0.12C349.48,267.94,349.4,267.88,349.36,267.77z"/>
	<path d="M348.96,267.62c0.12-0.04,0.2,0,0.25,0.11C349.09,267.77,349,267.74,348.96,267.62z"/>
	<path d="M382.26,223.33c0-4.71-0.01-9.42,0-14.12c0.01-2.55,1.19-4.33,3.42-5.13c1.56-0.55,3-0.2,4.41,0.57
		c8.08,4.43,16.17,8.85,24.26,13.28c0.98,0.54,2,1.01,2.9,1.69c2.62,1.99,2.63,5.92-0.03,7.85c-1.82,1.32-3.89,2.21-5.86,3.28
		c-7.09,3.84-14.2,7.65-21.31,11.46c-2.26,1.21-4.37,1.05-6.07-0.44c-1.25-1.08-1.71-2.5-1.71-4.12
		C382.27,232.87,382.26,228.1,382.26,223.33z M389.46,223.43c0,3.33,0.02,6.66-0.01,9.99c-0.01,0.85,0.16,0.88,0.88,0.49
		c6.1-3.31,12.23-6.59,18.34-9.89c0.26-0.14,0.73-0.15,0.69-0.55c-0.02-0.29-0.43-0.34-0.67-0.47c-6.12-3.36-12.25-6.7-18.36-10.07
		c-0.7-0.38-0.89-0.37-0.88,0.49C389.49,216.77,389.46,220.1,389.46,223.43z"/>
</g>
<g>
	<path d="M174.35,268.88c-0.06,0-0.11,0.02-0.15,0.05c-0.12-0.04-0.21-0.01-0.26,0.11c-0.17,0.04-0.33,0.09-0.5,0.13
		c-0.11-0.06-0.2-0.03-0.25,0.09c-0.11,0.03-0.22,0.06-0.33,0.09c-0.38-0.03-0.71,0.07-1.02,0.29c-0.17,0.03-0.34,0.07-0.52,0.1
		c-0.98,0.11-1.96,0.26-2.91,0.53c-0.38,0.05-0.77,0.09-1.15,0.14c-0.2-0.13-0.39-0.07-0.58,0.04c-0.38,0.02-0.75,0.03-1.13,0.05
		c-0.08,0-0.16,0.01-0.24,0.01c-0.18,0.01-0.35,0.02-0.53,0.03c-0.6-0.11-1.18-0.07-1.76,0.11c-0.75,0.03-1.5,0.06-2.26,0.09
		c-2.78-0.1-5.55,0.14-8.32,0.26c-5.96,0-11.92,0-17.88,0c-0.36-0.29-0.79-0.15-1.19-0.18c-4.06-0.26-8.14-0.18-12.16-0.94
		c-10.22-1.94-18.14-9.73-20.32-19.92c-0.86-4-1.17-8.05-1.22-12.12c-0.14-9.64-0.22-19.29,0.09-28.93
		c0.16-4.89,0.71-9.73,2.65-14.28c3.57-8.37,10.01-13.25,18.78-15.17c3.9-0.85,7.9-0.79,11.87-0.93
		c11.18-0.39,22.36-0.35,33.53,0.37c11.11,0.72,22.26,7.53,24.75,22.51c0.56,3.36,0.77,6.75,0.81,10.15
		c0.13,9.68,0.22,19.35-0.1,29.03c-0.15,4.6-0.69,9.14-2.38,13.47c-2.71,6.95-7.61,11.73-14.51,14.5c-0.12-0.05-0.2-0.01-0.25,0.11
		c-0.05,0.01-0.1,0.03-0.15,0.06C174.6,268.69,174.45,268.72,174.35,268.88z M148.77,185.59c-9.96,0.01-17.06-0.02-24.1,0.71
		c-7.63,0.79-13.15,4.71-15.91,12.06c-1.27,3.4-1.61,6.98-1.71,10.58c-0.28,9.64-0.26,19.29-0.08,28.93
		c0.05,2.63,0.16,5.25,0.51,7.86c1.42,10.51,8.21,16.9,18.67,17.5c7.78,0.45,15.56,0.59,23.35,0.52c5.86-0.06,11.74-0.05,17.57-0.67
		c7.72-0.82,13.28-4.73,16.04-12.17c1.24-3.34,1.57-6.86,1.67-10.39c0.28-9.51,0.26-19.03,0.09-28.55
		c-0.05-2.76-0.15-5.51-0.51-8.24c-1.37-10.41-7.76-16.67-18.2-17.53C159.42,185.63,152.65,185.58,148.77,185.59z"/>
	<path d="M152.45,271.02c2.77-0.12,5.54-0.36,8.32-0.26c-0.02,0.09-0.03,0.18-0.05,0.26C157.97,271.02,155.21,271.02,152.45,271.02z
		"/>
	<path d="M168.41,270.27c0.95-0.26,1.93-0.41,2.91-0.53C170.4,270.19,169.43,270.33,168.41,270.27z"/>
	<path d="M163.03,270.66c0.58-0.19,1.16-0.23,1.76-0.11C164.22,270.87,163.63,270.87,163.03,270.66z"/>
	<path d="M171.84,269.64c0.31-0.21,0.65-0.32,1.02-0.29C172.57,269.64,172.24,269.74,171.84,269.64z"/>
	<path d="M166.68,270.45c0.19-0.11,0.38-0.17,0.58-0.04C167.08,270.61,166.89,270.61,166.68,270.45z"/>
	<path d="M174.35,268.88c0.1-0.16,0.25-0.19,0.42-0.14C174.68,268.92,174.53,268.94,174.35,268.88z"/>
	<path d="M173.19,269.26c0.05-0.12,0.13-0.15,0.25-0.09C173.39,269.29,173.31,269.32,173.19,269.26z"/>
	<path d="M174.92,268.68c0.04-0.12,0.13-0.16,0.25-0.11C175.12,268.69,175.04,268.73,174.92,268.68z"/>
	<path d="M173.94,269.04c0.05-0.12,0.14-0.15,0.26-0.11C174.15,269.05,174.07,269.1,173.94,269.04z"/>
	<path d="M165.31,270.52c0.08,0,0.16-0.01,0.24-0.01C165.48,270.65,165.4,270.66,165.31,270.52z"/>
	<path d="M145.71,247.32c-12.48-0.02-22.6-10.18-22.59-22.67c0.01-12.48,10.18-22.63,22.65-22.61
		c12.46,0.02,22.63,10.21,22.62,22.66C168.36,237.15,158.15,247.34,145.71,247.32z M161.1,224.71c0.01-8.47-6.85-15.39-15.28-15.4
		c-8.52-0.02-15.45,6.85-15.47,15.33c-0.01,8.45,6.87,15.39,15.3,15.41C154.17,240.07,161.09,233.21,161.1,224.71z"/>
	<path d="M170.9,194.82c3,0,5.43,2.43,5.43,5.43c0,2.99-2.46,5.44-5.44,5.44c-2.98-0.01-5.44-2.47-5.44-5.45
		C165.45,197.25,167.9,194.82,170.9,194.82z"/>
</g>
<g>
	<path d="M571.84,221.41c0.07,0,0.14,0,0.21,0c0,2.18,0,4.36,0,6.54c-0.07,0-0.14,0-0.21,0c-0.19-0.54,0.01-1.08,0.09-1.6
		C572.18,224.69,571.79,223.06,571.84,221.41z"/>
	<path d="M571.84,221.41c-0.05,1.65,0.34,3.28,0.09,4.94c-0.08,0.52-0.28,1.06-0.09,1.6c-0.01,0.11-0.02,0.22-0.04,0.34
		c-0.18,0.26-0.15,0.55-0.08,0.84c-0.94,8.52-3.99,16.19-9.42,22.83c-7.3,8.94-16.69,14.31-28.16,15.83
		c-12.32,1.63-23.39-1.55-33.06-9.27c-8.52-6.8-13.73-15.69-15.57-26.45c-2.19-12.84,0.89-24.43,8.95-34.59
		c6.82-8.59,15.79-13.75,26.6-15.7c19.36-3.48,39.3,7.03,47.34,25.69c1.76,4.09,2.82,8.35,3.32,12.76c-0.07,0.29-0.1,0.57,0.08,0.84
		C571.82,221.18,571.83,221.3,571.84,221.41z M528.4,260.97c20.09-0.11,36.2-16.16,36.28-36.27c0.07-19.99-16.37-36.39-36.32-36.3
		c-20.04,0.09-36.31,16.34-36.22,36.3C492.21,245.01,508.31,260.8,528.4,260.97z"/>
	<path d="M571.72,229.12c-0.07-0.29-0.1-0.57,0.08-0.84C571.9,228.58,571.94,228.86,571.72,229.12z"/>
	<path d="M571.8,221.07c-0.18-0.26-0.15-0.55-0.08-0.84C571.94,220.5,571.9,220.78,571.8,221.07z"/>
	<path d="M522.33,207.26c9.65,0.19,17.88,1.36,25.83,4.18c2.81,1,5.51,2.23,8.09,3.72c1.49,0.86,2.27,2.34,2.05,3.83
		c-0.24,1.67-1.34,2.88-2.96,3.27c-0.95,0.23-1.85,0.05-2.69-0.41c-10.89-6-22.67-7.41-34.85-6.82c-4.3,0.21-8.51,0.96-12.66,2.07
		c-2.16,0.58-4.17-0.59-4.75-2.64c-0.57-2.05,0.57-3.99,2.77-4.65C509.83,207.81,516.67,207.28,522.33,207.26z"/>
	<path d="M522.17,221.46c8.95,0.02,17.54,1.76,25.61,5.74c1.03,0.51,2.03,1.09,3.02,1.67c1.72,1.02,2.27,2.82,1.39,4.42
		c-0.86,1.56-2.77,2.08-4.5,1.07c-3.73-2.18-7.67-3.82-11.85-4.87c-9.37-2.34-18.74-2.56-28.1,0.01c-0.74,0.2-1.48,0.41-2.27,0.21
		c-1.36-0.34-2.36-1.52-2.43-2.88c-0.07-1.48,0.79-2.73,2.27-3.19c4-1.23,8.09-1.93,12.26-2.17
		C519.09,221.38,520.63,221.46,522.17,221.46z"/>
	<path d="M522.58,234.58c7.21,0.07,14.29,1.51,20.93,4.89c0.88,0.45,1.76,0.93,2.61,1.44c1.35,0.81,1.77,2.31,1.03,3.55
		c-0.73,1.22-2.16,1.6-3.51,0.83c-3.83-2.19-7.86-3.82-12.21-4.69c-5.95-1.19-11.91-1.15-17.87-0.25c-1.9,0.29-3.77,0.69-5.66,1.03
		c-1.53,0.27-2.81-0.52-3.1-1.88c-0.3-1.39,0.5-2.68,1.99-3.03C511.91,235.25,517.12,234.67,522.58,234.58z"/>
</g>
</svg>
